<?xml version="1.0" encoding="UTF-8"?>
<svg xmlns="http://www.w3.org/2000/svg" xmlns:xlink="http://www.w3.org/1999/xlink" width="3704" zoomAndPan="magnify" viewBox="0 0 2778 809.999993" height="1080" preserveAspectRatio="xMidYMid meet" version="1.0">
  <defs>
    <clipPath id="a23c57410a">
      <path d="M 61.457031 328 L 485 328 L 485 791.914062 L 61.457031 791.914062 Z M 61.457031 328 " clip-rule="nonzero"></path>
    </clipPath>
    <clipPath id="dd8843adfc">
      <path d="M 2558 223 L 2716.457031 223 L 2716.457031 421 L 2558 421 Z M 2558 223 " clip-rule="nonzero"></path>
    </clipPath>
  </defs>
  <path fill="#ffffff" d="M 641.8125 146.730469 L 576.300781 108.941406 L 559.710938 99.289062 L 431.8125 25.589844 L 430.761719 24.957031 C 428.71875 23.800781 426.605469 22.785156 424.425781 21.90625 C 422.246094 21.027344 420.019531 20.296875 417.742188 19.710938 C 415.46875 19.125 413.164062 18.691406 410.828125 18.410156 C 408.496094 18.128906 406.15625 18.003906 403.804688 18.03125 C 401.457031 18.058594 399.117188 18.242188 396.792969 18.578125 C 394.46875 18.914062 392.171875 19.398438 389.910156 20.039062 C 387.648438 20.675781 385.441406 21.460938 383.28125 22.390625 C 381.125 23.320312 379.035156 24.386719 377.019531 25.589844 L 335.054688 49.945312 L 233.21875 108.523438 L 89.394531 191.699219 C 87.300781 192.871094 85.296875 194.175781 83.382812 195.617188 C 81.46875 197.058594 79.65625 198.621094 77.953125 200.304688 C 76.25 201.992188 74.664062 203.78125 73.199219 205.679688 C 71.738281 207.578125 70.40625 209.566406 69.210938 211.644531 C 68.015625 213.722656 66.964844 215.871094 66.058594 218.089844 C 65.152344 220.308594 64.398438 222.578125 63.800781 224.898438 C 63.199219 227.21875 62.757812 229.570312 62.472656 231.949219 C 62.1875 234.332031 62.066406 236.71875 62.105469 239.117188 L 62.105469 300.222656 L 303.347656 439.417969 L 303.347656 369.722656 L 303.550781 368.457031 L 127.601562 266.835938 L 127.601562 245.214844 L 404.550781 85.421875 L 514.949219 149.046875 L 305.449219 269.988281 L 280.675781 255.703125 L 465.445312 149.046875 L 403.917969 113.613281 L 157.636719 255.703125 L 235.132812 300.425781 L 308.625 342.847656 L 309.042969 342.417969 C 312.496094 338.125 316.625 334.628906 321.429688 331.929688 Z M 641.8125 146.730469 " fill-opacity="1" fill-rule="evenodd"></path>
  <g clip-path="url(#a23c57410a)">
    <path fill="#7bef00" d="M 484.75 479.957031 L 422.820312 515.648438 C 421.277344 516.363281 419.695312 516.988281 418.078125 517.515625 C 416.460938 518.046875 414.820312 518.480469 413.148438 518.816406 C 411.480469 519.152344 409.800781 519.386719 408.101562 519.523438 C 406.40625 519.660156 404.707031 519.699219 403.007812 519.632812 C 401.308594 519.570312 399.617188 519.40625 397.933594 519.144531 C 396.253906 518.878906 394.59375 518.519531 392.953125 518.058594 C 391.316406 517.601562 389.710938 517.046875 388.136719 516.398438 C 386.5625 515.75 385.035156 515.007812 383.546875 514.179688 L 62.105469 328.78125 L 62.105469 499.261719 L 403.917969 696.632812 L 423.238281 685.511719 L 423.238281 714.066406 L 404.550781 724.984375 L 62.105469 527.199219 C 61.472656 566.039062 56.421875 599.628906 89.394531 618.746094 L 377.046875 784.816406 C 412.050781 805.007812 443.605469 778.515625 484.75 754.160156 L 484.75 579.679688 L 404.550781 625.871094 L 127.601562 466.089844 L 127.601562 437.535156 L 404.550781 597.3125 L 484.75 551.164062 Z M 484.75 479.957031 " fill-opacity="1" fill-rule="evenodd"></path>
  </g>
  <path fill="#00a5bf" d="M 595.617188 301.691406 L 595.617188 614.535156 L 570.847656 628.816406 L 571.046875 603.238281 L 570.847656 539.625 L 571.046875 500.152344 L 571.046875 315.964844 L 549.640625 328.078125 L 507.433594 352.433594 L 506.386719 353.066406 L 506.585938 353.699219 C 508.535156 358.910156 509.515625 364.292969 509.535156 369.855469 L 509.535156 739.820312 L 574.832031 702.03125 L 677.714844 642.792969 L 719.453125 618.640625 C 721.535156 617.46875 723.535156 616.164062 725.445312 614.722656 C 727.355469 613.285156 729.160156 611.726562 730.863281 610.046875 C 732.5625 608.363281 734.144531 606.578125 735.609375 604.6875 C 737.070312 602.792969 738.398438 600.8125 739.597656 598.742188 C 740.792969 596.671875 741.847656 594.53125 742.757812 592.320312 C 743.667969 590.109375 744.429688 587.847656 745.035156 585.535156 C 745.644531 583.222656 746.097656 580.878906 746.390625 578.503906 C 746.683594 576.132812 746.820312 573.75 746.796875 571.359375 L 746.796875 239.117188 C 746.855469 231.394531 745.386719 223.976562 742.378906 216.859375 L 681.5 252.132812 L 681.703125 395.542969 L 681.703125 564.988281 L 657.132812 579.058594 L 657.132812 237.648438 L 727.261719 197.082031 L 720.125 191.832031 L 666.582031 160.976562 L 657.160156 166.429688 L 595.644531 201.917969 L 429.738281 297.910156 C 447.847656 306.941406 473.429688 319.746094 490.214844 333.816406 L 576.933594 283.839844 L 595.617188 273.136719 Z M 657.132812 259.285156 L 646.847656 253.183594 L 642.441406 250.667969 Z M 657.132812 259.285156 " fill-opacity="1" fill-rule="evenodd"></path>
  <path fill="#ffffff" d="M 1210.558594 511.515625 C 1207.804688 505.042969 1204.015625 499.253906 1199.183594 494.148438 C 1197.183594 492.234375 1195.054688 490.472656 1192.800781 488.867188 C 1190.542969 487.261719 1188.183594 485.828125 1185.722656 484.5625 C 1183.261719 483.296875 1180.71875 482.21875 1178.101562 481.320312 C 1175.480469 480.421875 1172.8125 479.71875 1170.089844 479.207031 C 1167.371094 478.695312 1164.628906 478.382812 1161.863281 478.269531 C 1159.09375 478.152344 1156.335938 478.238281 1153.582031 478.523438 C 1150.828125 478.808594 1148.109375 479.289062 1145.425781 479.96875 C 1142.742188 480.644531 1140.121094 481.511719 1137.5625 482.570312 C 1131.023438 485.394531 1125.230469 489.320312 1120.179688 494.347656 C 1115.207031 499.367188 1111.414062 505.160156 1108.804688 511.730469 C 1107.441406 515.058594 1106.410156 518.492188 1105.714844 522.023438 C 1105.019531 525.554688 1104.671875 529.121094 1104.671875 532.71875 C 1104.671875 536.316406 1105.019531 539.882812 1105.714844 543.414062 C 1106.410156 546.945312 1107.441406 550.375 1108.804688 553.707031 C 1111.367188 560.1875 1115.089844 565.910156 1119.980469 570.871094 C 1124.984375 575.957031 1130.773438 579.886719 1137.347656 582.667969 C 1144.457031 585.484375 1151.832031 586.859375 1159.480469 586.800781 C 1167.152344 586.894531 1174.519531 585.445312 1181.585938 582.453125 C 1188.1875 579.722656 1193.976562 575.796875 1198.953125 570.671875 C 1203.867188 565.660156 1207.726562 559.9375 1210.53125 553.503906 C 1213.230469 546.730469 1214.542969 539.699219 1214.460938 532.410156 C 1214.570312 525.179688 1213.265625 518.214844 1210.558594 511.515625 Z M 1192.570312 547.125 C 1190.898438 551.570312 1188.484375 555.570312 1185.328125 559.121094 C 1183.6875 560.855469 1181.886719 562.40625 1179.921875 563.769531 C 1177.960938 565.128906 1175.875 566.273438 1173.675781 567.203125 C 1171.472656 568.128906 1169.199219 568.820312 1166.851562 569.273438 C 1164.503906 569.726562 1162.136719 569.929688 1159.75 569.890625 C 1154.792969 569.910156 1150.035156 568.945312 1145.476562 566.996094 C 1141.179688 565.019531 1137.394531 562.324219 1134.113281 558.917969 C 1130.929688 555.382812 1128.515625 551.386719 1126.871094 546.921875 C 1125.980469 544.613281 1125.3125 542.242188 1124.859375 539.808594 C 1124.40625 537.378906 1124.179688 534.921875 1124.179688 532.449219 C 1124.179688 529.976562 1124.40625 527.519531 1124.859375 525.089844 C 1125.3125 522.65625 1125.980469 520.285156 1126.871094 517.976562 C 1128.472656 513.546875 1130.886719 509.613281 1134.113281 506.183594 C 1137.316406 502.773438 1141.039062 500.082031 1145.277344 498.105469 C 1149.832031 496.15625 1154.589844 495.191406 1159.546875 495.210938 C 1164.597656 495.179688 1169.421875 496.214844 1174.019531 498.308594 C 1178.304688 500.222656 1182.03125 502.914062 1185.195312 506.382812 C 1188.484375 509.878906 1190.96875 513.878906 1192.640625 518.378906 C 1193.527344 520.671875 1194.199219 523.023438 1194.652344 525.441406 C 1195.105469 527.855469 1195.332031 530.292969 1195.332031 532.753906 C 1195.332031 535.210938 1195.105469 537.648438 1194.652344 540.0625 C 1194.199219 542.480469 1193.527344 544.832031 1192.640625 547.125 Z M 1192.570312 547.125 " fill-opacity="1" fill-rule="nonzero"></path>
  <path fill="#ffffff" d="M 1354.289062 585.144531 L 1427.71875 585.144531 L 1427.71875 568.394531 L 1372.707031 568.394531 L 1372.707031 480.078125 L 1354.289062 480.078125 Z M 1354.289062 585.144531 " fill-opacity="1" fill-rule="nonzero"></path>
  <path fill="#ffffff" d="M 1662.636719 480.078125 L 1644.230469 480.078125 L 1644.230469 540.472656 C 1644.230469 550.195312 1641.957031 557.4375 1637.203125 562.390625 C 1632.453125 567.34375 1626.03125 569.835938 1617.761719 569.835938 C 1609.496094 569.835938 1602.871094 567.144531 1598.105469 562.1875 C 1593.339844 557.234375 1591.078125 549.574219 1591.078125 539.855469 L 1591.078125 480.078125 L 1572.675781 480.078125 L 1572.675781 540.472656 C 1572.523438 547.394531 1573.648438 554.097656 1576.054688 560.585938 C 1577.90625 566.09375 1580.871094 570.917969 1584.941406 575.058594 C 1588.957031 579.042969 1593.644531 581.9375 1599.007812 583.742188 C 1604.96875 585.808594 1611.105469 586.773438 1617.414062 586.636719 C 1623.871094 586.808594 1630.152344 585.84375 1636.261719 583.742188 C 1641.621094 581.9375 1646.304688 579.042969 1650.316406 575.058594 C 1654.507812 570.804688 1657.542969 565.839844 1659.417969 560.167969 C 1661.707031 553.535156 1662.8125 546.710938 1662.730469 539.691406 Z M 1662.636719 480.078125 " fill-opacity="1" fill-rule="nonzero"></path>
  <path fill="#ffffff" d="M 1835.542969 497.242188 L 1868.835938 497.242188 L 1868.835938 480.078125 L 1783.628906 480.078125 L 1783.628906 497.242188 L 1816.9375 497.242188 L 1816.9375 585.144531 L 1835.542969 585.144531 Z M 1835.542969 497.242188 " fill-opacity="1" fill-rule="nonzero"></path>
  <path fill="#ffffff" d="M 2022.515625 480.078125 L 2040.71875 480.078125 L 2040.71875 585.144531 L 2022.515625 585.144531 Z M 2022.515625 480.078125 " fill-opacity="1" fill-rule="nonzero"></path>
  <path fill="#ffffff" d="M 2277.480469 511.515625 C 2274.878906 505.007812 2271.15625 499.21875 2266.320312 494.148438 C 2261.328125 489.207031 2255.605469 485.347656 2249.15625 482.570312 C 2242.007812 479.59375 2234.5625 478.140625 2226.820312 478.21875 C 2219.136719 478.121094 2211.757812 479.570312 2204.6875 482.570312 C 2198.152344 485.398438 2192.363281 489.324219 2187.320312 494.347656 C 2182.339844 499.363281 2178.546875 505.160156 2175.941406 511.730469 C 2174.578125 515.058594 2173.546875 518.492188 2172.851562 522.023438 C 2172.15625 525.554688 2171.808594 529.121094 2171.808594 532.71875 C 2171.808594 536.316406 2172.15625 539.882812 2172.851562 543.414062 C 2173.546875 546.945312 2174.578125 550.375 2175.941406 553.707031 C 2177.238281 556.949219 2178.84375 560.03125 2180.753906 562.949219 C 2182.664062 565.871094 2184.847656 568.574219 2187.296875 571.0625 C 2189.746094 573.546875 2192.417969 575.769531 2195.3125 577.722656 C 2198.203125 579.675781 2201.261719 581.324219 2204.484375 582.667969 C 2211.59375 585.484375 2218.96875 586.863281 2226.617188 586.800781 C 2234.296875 586.898438 2241.667969 585.449219 2248.738281 582.453125 C 2255.34375 579.722656 2261.136719 575.792969 2266.117188 570.671875 C 2271.039062 565.699219 2274.828125 559.976562 2277.480469 553.503906 C 2280.25 546.746094 2281.632812 539.714844 2281.628906 532.410156 C 2281.652344 525.164062 2280.269531 518.199219 2277.480469 511.515625 Z M 2259.628906 547.125 C 2257.957031 551.566406 2255.546875 555.566406 2252.398438 559.121094 C 2249.226562 562.527344 2245.503906 565.148438 2241.226562 566.980469 C 2236.617188 569.039062 2231.792969 570.003906 2226.753906 569.875 C 2221.796875 569.894531 2217.039062 568.929688 2212.480469 566.980469 C 2208.144531 565.054688 2204.355469 562.363281 2201.105469 558.902344 C 2199.921875 557.523438 2198.835938 556.066406 2197.84375 554.542969 C 2196.851562 553.015625 2195.964844 551.429688 2195.183594 549.785156 C 2194.402344 548.144531 2193.734375 546.457031 2193.175781 544.722656 C 2192.617188 542.992188 2192.171875 541.230469 2191.847656 539.441406 C 2191.523438 537.648438 2191.316406 535.84375 2191.230469 534.027344 C 2191.140625 532.210938 2191.175781 530.394531 2191.328125 528.582031 C 2191.480469 526.769531 2191.753906 524.972656 2192.144531 523.195312 C 2192.535156 521.417969 2193.039062 519.671875 2193.660156 517.964844 C 2195.414062 513.570312 2197.894531 509.640625 2201.105469 506.167969 C 2204.316406 502.765625 2208.039062 500.070312 2212.28125 498.089844 C 2216.835938 496.140625 2221.59375 495.175781 2226.550781 495.195312 C 2228.949219 495.21875 2231.320312 495.476562 2233.664062 495.976562 C 2236.011719 496.476562 2238.28125 497.207031 2240.480469 498.164062 C 2242.675781 499.125 2244.757812 500.292969 2246.71875 501.671875 C 2248.679688 503.050781 2250.484375 504.613281 2252.128906 506.359375 C 2255.347656 509.898438 2257.828125 513.898438 2259.574219 518.351562 C 2261.269531 523.035156 2262.097656 527.863281 2262.066406 532.839844 C 2262.101562 537.746094 2261.289062 542.507812 2259.628906 547.125 Z M 2259.628906 547.125 " fill-opacity="1" fill-rule="nonzero"></path>
  <path fill="#ffffff" d="M 2481.621094 552.671875 L 2425.371094 480.078125 L 2408.410156 480.078125 L 2408.410156 585.144531 L 2426.613281 585.144531 L 2426.613281 510.492188 L 2484.515625 585.144531 L 2499.824219 585.144531 L 2499.824219 480.078125 L 2481.621094 480.078125 Z M 2481.621094 552.671875 " fill-opacity="1" fill-rule="nonzero"></path>
  <path fill="#ffffff" d="M 920.925781 507.582031 C 920.914062 506.722656 921 505.875 921.1875 505.039062 C 921.375 504.199219 921.65625 503.394531 922.035156 502.621094 C 922.410156 501.851562 922.871094 501.132812 923.417969 500.46875 C 923.960938 499.808594 924.578125 499.214844 925.261719 498.699219 C 928.371094 496.21875 932.503906 494.96875 937.878906 494.96875 C 942.804688 494.960938 947.5625 495.855469 952.148438 497.660156 C 957.265625 499.71875 962.019531 502.410156 966.417969 505.738281 L 976.355469 491.925781 C 971.113281 487.652344 965.320312 484.34375 958.972656 482.003906 C 952.277344 479.667969 945.386719 478.5625 938.292969 478.691406 C 933.359375 478.609375 928.535156 479.292969 923.820312 480.75 C 919.6875 482.082031 915.960938 484.148438 912.648438 486.957031 C 909.578125 489.746094 907.09375 492.988281 905.203125 496.679688 C 903.417969 500.695312 902.519531 504.898438 902.507812 509.292969 C 902.445312 513.582031 903.203125 517.71875 904.785156 521.707031 C 906.460938 525.066406 908.730469 527.960938 911.597656 530.390625 C 914.910156 533.023438 918.566406 535.023438 922.570312 536.394531 C 927.488281 538.226562 932.519531 539.671875 937.660156 540.730469 C 941.660156 541.671875 945.59375 542.84375 949.457031 544.242188 C 952.050781 545.039062 954.460938 546.214844 956.683594 547.769531 C 958.324219 548.792969 959.566406 550.167969 960.414062 551.902344 C 961.027344 553.5 961.300781 555.148438 961.234375 556.859375 C 961.273438 557.8125 961.1875 558.753906 960.980469 559.6875 C 960.777344 560.621094 960.457031 561.511719 960.023438 562.363281 C 959.589844 563.214844 959.054688 563.996094 958.421875 564.710938 C 957.789062 565.425781 957.074219 566.046875 956.28125 566.578125 C 952.96875 569.0625 948.417969 570.308594 942.628906 570.308594 C 936.523438 570.363281 930.664062 569.195312 925.046875 566.792969 C 919.449219 564.035156 914.28125 560.617188 909.550781 556.546875 L 898.59375 569.78125 C 904.585938 575.332031 911.40625 579.535156 919.054688 582.398438 C 926.535156 585.144531 934.257812 586.523438 942.226562 586.53125 C 947.347656 586.527344 952.378906 585.839844 957.316406 584.46875 C 961.691406 583.238281 965.621094 581.171875 969.113281 578.265625 C 972.492188 575.597656 975.042969 572.289062 976.757812 568.34375 C 978.71875 564.179688 979.679688 559.800781 979.640625 555.203125 C 979.710938 551.175781 978.953125 547.3125 977.363281 543.609375 C 975.898438 540.28125 973.761719 537.457031 970.957031 535.140625 C 967.839844 532.394531 964.328125 530.328125 960.414062 528.933594 C 955.648438 526.941406 950.753906 525.355469 945.726562 524.167969 C 940.757812 522.929688 936.625 521.894531 933.3125 520.871094 C 930.648438 519.871094 928.097656 518.625 925.667969 517.140625 C 924.023438 516.128906 922.785156 514.75 921.949219 513.007812 C 921.136719 511.304688 920.789062 509.507812 920.914062 507.625 Z M 920.925781 507.582031 " fill-opacity="1" fill-rule="nonzero"></path>
  <path fill="#ffffff" d="M 2656.171875 507.582031 C 2656.179688 506.714844 2656.285156 505.863281 2656.492188 505.023438 C 2656.703125 504.179688 2657.003906 503.375 2657.398438 502.601562 C 2657.792969 501.832031 2658.269531 501.117188 2658.832031 500.457031 C 2659.394531 499.796875 2660.023438 499.210938 2660.722656 498.699219 C 2663.816406 496.21875 2667.949219 494.96875 2673.335938 494.96875 C 2678.261719 494.960938 2683.019531 495.859375 2687.605469 497.660156 C 2692.695312 499.769531 2697.453125 502.460938 2701.878906 505.738281 L 2711.800781 491.925781 C 2706.535156 487.695312 2700.746094 484.390625 2694.433594 482.003906 C 2687.664062 479.648438 2680.699219 478.546875 2673.539062 478.691406 C 2668.671875 478.609375 2663.914062 479.296875 2659.265625 480.75 C 2655.097656 482.125 2651.304688 484.195312 2647.890625 486.957031 C 2644.8125 489.703125 2642.402344 492.941406 2640.660156 496.679688 C 2638.777344 500.671875 2637.882812 504.878906 2637.96875 509.292969 C 2637.910156 513.582031 2638.667969 517.71875 2640.242188 521.707031 C 2641.925781 525.066406 2644.203125 527.960938 2647.070312 530.390625 C 2650.378906 533.023438 2654.03125 535.023438 2658.027344 536.394531 C 2662.886719 538.199219 2667.851562 539.644531 2672.917969 540.730469 C 2676.992188 541.644531 2680.992188 542.816406 2684.914062 544.242188 C 2687.492188 545.082031 2689.90625 546.257812 2692.15625 547.769531 C 2693.742188 548.796875 2694.914062 550.171875 2695.671875 551.902344 C 2696.359375 553.484375 2696.707031 555.132812 2696.707031 556.859375 C 2696.746094 557.8125 2696.660156 558.757812 2696.453125 559.691406 C 2696.25 560.625 2695.929688 561.515625 2695.492188 562.367188 C 2695.058594 563.21875 2694.523438 564 2693.886719 564.714844 C 2693.25 565.425781 2692.535156 566.046875 2691.742188 566.578125 C 2688.429688 569.0625 2683.878906 570.308594 2678.089844 570.308594 C 2671.976562 570.382812 2666.117188 569.210938 2660.503906 566.792969 C 2654.878906 564.078125 2649.71875 560.664062 2645.023438 556.546875 L 2633.863281 569.78125 C 2639.960938 575.289062 2646.855469 579.496094 2654.542969 582.398438 C 2662.011719 585.160156 2669.730469 586.539062 2677.699219 586.53125 C 2682.824219 586.527344 2687.859375 585.839844 2692.804688 584.46875 C 2697.125 583.152344 2701.050781 581.082031 2704.582031 578.265625 C 2707.902344 575.546875 2710.457031 572.238281 2712.246094 568.34375 C 2714.148438 564.136719 2715.046875 559.722656 2714.9375 555.109375 C 2715.0625 551.097656 2714.371094 547.234375 2712.863281 543.515625 C 2711.390625 540.191406 2709.253906 537.367188 2706.453125 535.046875 C 2703.28125 532.394531 2699.761719 530.324219 2695.898438 528.839844 C 2691.128906 526.878906 2686.238281 525.292969 2681.226562 524.074219 C 2676.257812 522.835938 2672.125 521.800781 2668.8125 520.777344 C 2666.125 519.820312 2663.574219 518.578125 2661.164062 517.046875 C 2659.519531 515.988281 2658.210938 514.609375 2657.234375 512.914062 C 2656.527344 511.1875 2656.179688 509.394531 2656.195312 507.527344 Z M 2656.171875 507.582031 " fill-opacity="1" fill-rule="nonzero"></path>
  <path fill="#ffffff" d="M 975.84375 332.777344 C 991.855469 332.777344 1003.914062 329.417969 1012.019531 322.695312 C 1020.3125 315.789062 1024.269531 306.296875 1024.269531 293.84375 C 1024.269531 281.1875 1020.3125 271.695312 1012.019531 264.976562 C 1003.726562 258.261719 991.824219 254.894531 975.84375 254.894531 L 933.328125 254.894531 L 933.328125 332.777344 Z M 977.621094 224.011719 C 994.625 224.011719 1009.445312 226.785156 1021.898438 232.316406 C 1024.859375 233.542969 1027.710938 234.988281 1030.457031 236.644531 C 1033.199219 238.300781 1035.804688 240.152344 1038.269531 242.199219 C 1040.734375 244.246094 1043.035156 246.464844 1045.167969 248.855469 C 1047.300781 251.25 1049.242188 253.785156 1050.992188 256.46875 C 1057.714844 266.960938 1061.074219 279.417969 1061.0625 293.84375 C 1061.0625 307.871094 1057.710938 320.324219 1050.992188 330.8125 C 1044.277344 341.300781 1034.582031 349.59375 1021.925781 355.128906 C 1009.273438 360.660156 994.652344 363.421875 977.648438 363.421875 L 933.328125 363.421875 L 933.328125 420.167969 L 896.976562 420.167969 L 896.976562 224.011719 Z M 977.621094 224.011719 " fill-opacity="1" fill-rule="nonzero"></path>
  <path fill="#ffffff" d="M 1234.414062 420.167969 L 1194.296875 362.679688 C 1191.796875 362.949219 1189.292969 363.078125 1186.78125 363.070312 L 1142.542969 363.070312 L 1142.542969 420.167969 L 1105.921875 420.167969 L 1105.921875 332.980469 L 1184.992188 332.980469 C 1200.8125 332.980469 1212.875 329.613281 1221.179688 322.695312 C 1229.488281 315.773438 1233.433594 306.296875 1233.433594 293.84375 C 1233.433594 281.1875 1229.472656 271.695312 1221.179688 264.976562 C 1212.886719 258.261719 1200.8125 254.894531 1184.992188 254.894531 L 1105.921875 254.894531 L 1105.921875 224.011719 L 1186.78125 224.011719 C 1203.773438 224.011719 1218.609375 226.785156 1231.0625 232.316406 C 1234.019531 233.542969 1236.867188 234.980469 1239.605469 236.636719 C 1242.347656 238.289062 1244.945312 240.136719 1247.410156 242.179688 C 1249.871094 244.222656 1252.167969 246.441406 1254.296875 248.828125 C 1256.425781 251.214844 1258.367188 253.75 1260.117188 256.429688 C 1266.847656 266.921875 1270.207031 279.378906 1270.199219 293.800781 C 1270.199219 308.421875 1266.644531 321.078125 1259.335938 331.753906 C 1252.023438 342.429688 1241.925781 350.335938 1228.492188 355.679688 L 1273.566406 420.125 Z M 1234.414062 420.167969 " fill-opacity="1" fill-rule="nonzero"></path>
  <path fill="#ffffff" d="M 1410.957031 390.953125 C 1417.128906 391.027344 1423.214844 390.328125 1429.207031 388.851562 C 1435.203125 387.375 1440.917969 385.171875 1446.351562 382.242188 C 1451.5 379.335938 1456.15625 375.78125 1460.320312 371.585938 C 1464.484375 367.390625 1468 362.707031 1470.867188 357.535156 C 1473.945312 352.15625 1476.257812 346.460938 1477.800781 340.453125 C 1479.34375 334.445312 1480.0625 328.34375 1479.953125 322.140625 C 1480.046875 315.914062 1479.324219 309.78125 1477.78125 303.746094 C 1476.238281 297.710938 1473.933594 291.980469 1470.867188 286.558594 C 1468.023438 281.394531 1464.515625 276.730469 1460.347656 272.5625 C 1456.179688 268.394531 1451.515625 264.886719 1446.351562 262.042969 C 1440.941406 259.042969 1435.238281 256.789062 1429.234375 255.28125 C 1423.234375 253.773438 1417.144531 253.066406 1410.957031 253.15625 C 1404.804688 253.054688 1398.742188 253.757812 1392.777344 255.261719 C 1386.808594 256.769531 1381.144531 259.03125 1375.777344 262.042969 C 1370.585938 264.882812 1365.886719 268.382812 1361.683594 272.550781 C 1357.480469 276.71875 1353.941406 281.390625 1351.058594 286.558594 C 1348.039062 292 1345.757812 297.734375 1344.214844 303.765625 C 1342.675781 309.792969 1341.929688 315.917969 1341.972656 322.140625 C 1341.914062 328.335938 1342.65625 334.433594 1344.195312 340.433594 C 1345.738281 346.433594 1348.023438 352.136719 1351.058594 357.535156 C 1353.964844 362.714844 1357.515625 367.402344 1361.710938 371.597656 C 1365.910156 375.792969 1370.597656 379.339844 1375.777344 382.242188 C 1381.167969 385.183594 1386.84375 387.390625 1392.804688 388.867188 C 1398.765625 390.34375 1404.816406 391.039062 1410.957031 390.953125 Z M 1410.957031 422.96875 C 1390.988281 422.96875 1373 418.617188 1356.996094 409.921875 C 1353.082031 407.847656 1349.324219 405.511719 1345.726562 402.921875 C 1342.132812 400.332031 1338.730469 397.507812 1335.519531 394.449219 C 1332.3125 391.394531 1329.328125 388.128906 1326.566406 384.664062 C 1323.804688 381.195312 1321.292969 377.558594 1319.03125 373.746094 C 1317.917969 371.785156 1316.871094 369.792969 1315.890625 367.765625 C 1314.90625 365.738281 1313.988281 363.679688 1313.140625 361.59375 C 1312.289062 359.503906 1311.507812 357.394531 1310.792969 355.257812 C 1310.078125 353.117188 1309.433594 350.960938 1308.859375 348.78125 C 1308.285156 346.601562 1307.78125 344.40625 1307.347656 342.195312 C 1306.914062 339.984375 1306.554688 337.761719 1306.261719 335.527344 C 1305.972656 333.292969 1305.757812 331.050781 1305.609375 328.800781 C 1305.464844 326.554688 1305.394531 324.300781 1305.394531 322.046875 C 1305.394531 319.792969 1305.464844 317.542969 1305.609375 315.292969 C 1305.757812 313.046875 1305.972656 310.804688 1306.261719 308.570312 C 1306.554688 306.335938 1306.914062 304.113281 1307.347656 301.898438 C 1307.78125 299.6875 1308.285156 297.492188 1308.859375 295.316406 C 1309.433594 293.136719 1310.078125 290.976562 1310.792969 288.839844 C 1311.507812 286.703125 1312.289062 284.589844 1313.140625 282.503906 C 1313.988281 280.417969 1314.90625 278.359375 1315.890625 276.332031 C 1316.871094 274.304688 1317.917969 272.308594 1319.03125 270.351562 C 1321.292969 266.539062 1323.804688 262.898438 1326.566406 259.433594 C 1329.328125 255.964844 1332.3125 252.703125 1335.519531 249.644531 C 1338.730469 246.589844 1342.132812 243.765625 1345.726562 241.175781 C 1349.324219 238.582031 1353.082031 236.25 1356.996094 234.175781 C 1373.007812 225.476562 1390.996094 221.128906 1410.957031 221.128906 C 1430.9375 221.128906 1448.921875 225.476562 1465.132812 234.175781 C 1469.019531 236.25 1472.75 238.578125 1476.320312 241.15625 C 1479.894531 243.738281 1483.277344 246.546875 1486.464844 249.585938 C 1489.65625 252.625 1492.628906 255.867188 1495.378906 259.308594 C 1498.128906 262.753906 1500.636719 266.367188 1502.894531 270.148438 C 1511.984375 285.578125 1516.535156 302.769531 1516.535156 322.140625 C 1516.597656 326.667969 1516.351562 331.179688 1515.804688 335.671875 C 1515.253906 340.164062 1514.402344 344.597656 1513.25 348.976562 C 1512.097656 353.351562 1510.65625 357.632812 1508.921875 361.8125 C 1507.1875 365.996094 1505.179688 370.039062 1502.894531 373.949219 C 1500.636719 377.730469 1498.128906 381.34375 1495.378906 384.785156 C 1492.628906 388.230469 1489.65625 391.46875 1486.464844 394.507812 C 1483.277344 397.550781 1479.894531 400.359375 1476.320312 402.941406 C 1472.75 405.519531 1469.019531 407.847656 1465.132812 409.921875 C 1448.976562 418.617188 1430.9375 422.96875 1410.957031 422.96875 Z M 1410.957031 422.96875 " fill-opacity="1" fill-rule="nonzero"></path>
  <path fill="#ffffff" d="M 1600.746094 254.894531 L 1535.707031 254.894531 L 1535.707031 224.050781 L 1702.164062 224.050781 L 1702.164062 254.894531 L 1637.121094 254.894531 L 1637.121094 420.167969 L 1600.746094 420.167969 Z M 1600.746094 254.894531 " fill-opacity="1" fill-rule="nonzero"></path>
  <path fill="#ffffff" d="M 1827.113281 390.953125 C 1833.253906 391.027344 1839.300781 390.324219 1845.261719 388.851562 C 1851.21875 387.375 1856.898438 385.171875 1862.292969 382.242188 C 1867.480469 379.339844 1872.179688 375.785156 1876.382812 371.582031 C 1880.589844 367.378906 1884.144531 362.683594 1887.050781 357.496094 C 1890.054688 352.085938 1892.3125 346.382812 1893.820312 340.382812 C 1895.328125 334.382812 1896.039062 328.289062 1895.949219 322.101562 C 1896.027344 315.886719 1895.308594 309.765625 1893.800781 303.734375 C 1892.292969 297.707031 1890.042969 291.96875 1887.050781 286.519531 C 1884.171875 281.347656 1880.628906 276.679688 1876.425781 272.511719 C 1872.226562 268.34375 1867.527344 264.839844 1862.332031 262.003906 C 1859.632812 260.550781 1856.851562 259.269531 1853.992188 258.160156 C 1851.132812 257.050781 1848.214844 256.121094 1845.242188 255.371094 C 1842.265625 254.625 1839.257812 254.058594 1836.214844 253.683594 C 1833.167969 253.304688 1830.113281 253.117188 1827.046875 253.117188 C 1823.980469 253.117188 1820.921875 253.304688 1817.878906 253.683594 C 1814.835938 254.058594 1811.828125 254.625 1808.851562 255.371094 C 1805.878906 256.121094 1802.960938 257.050781 1800.101562 258.160156 C 1797.242188 259.269531 1794.460938 260.550781 1791.761719 262.003906 C 1786.566406 264.839844 1781.871094 268.34375 1777.671875 272.511719 C 1773.472656 276.679688 1769.933594 281.347656 1767.054688 286.519531 C 1764.058594 291.964844 1761.808594 297.703125 1760.300781 303.734375 C 1758.792969 309.765625 1758.078125 315.886719 1758.15625 322.101562 C 1758.0625 328.289062 1758.773438 334.382812 1760.28125 340.382812 C 1761.789062 346.382812 1764.046875 352.089844 1767.054688 357.496094 C 1769.957031 362.671875 1773.503906 367.359375 1777.703125 371.554688 C 1781.898438 375.75 1786.582031 379.300781 1791.761719 382.203125 C 1797.1875 385.144531 1802.902344 387.351562 1808.898438 388.828125 C 1814.894531 390.304688 1820.980469 390.996094 1827.15625 390.910156 Z M 1827.113281 422.96875 C 1806.917969 422.96875 1788.960938 418.617188 1772.9375 409.921875 C 1769.042969 407.839844 1765.308594 405.503906 1761.734375 402.910156 C 1758.160156 400.316406 1754.78125 397.492188 1751.59375 394.433594 C 1748.410156 391.378906 1745.445312 388.117188 1742.707031 384.652344 C 1739.96875 381.1875 1737.480469 377.550781 1735.242188 373.746094 C 1725.953125 358.332031 1721.414062 341.125 1721.414062 322.140625 C 1721.414062 303.160156 1725.953125 285.792969 1735.242188 270.351562 C 1737.480469 266.542969 1739.96875 262.910156 1742.707031 259.445312 C 1745.445312 255.980469 1748.410156 252.71875 1751.59375 249.660156 C 1754.78125 246.605469 1758.160156 243.777344 1761.734375 241.1875 C 1765.308594 238.59375 1769.042969 236.253906 1772.9375 234.175781 C 1788.960938 225.476562 1806.945312 221.128906 1827.113281 221.128906 C 1847.074219 221.128906 1865.0625 225.476562 1881.074219 234.175781 C 1884.957031 236.25 1888.683594 238.578125 1892.25 241.15625 C 1895.816406 243.738281 1899.191406 246.550781 1902.378906 249.589844 C 1905.5625 252.628906 1908.527344 255.871094 1911.273438 259.3125 C 1914.015625 262.753906 1916.515625 266.367188 1918.769531 270.148438 C 1928.058594 285.578125 1932.609375 302.769531 1932.609375 322.140625 C 1932.609375 341.515625 1928.058594 358.492188 1918.769531 373.949219 C 1916.515625 377.730469 1914.015625 381.34375 1911.273438 384.785156 C 1908.527344 388.226562 1905.5625 391.46875 1902.378906 394.507812 C 1899.191406 397.546875 1895.816406 400.359375 1892.25 402.9375 C 1888.683594 405.519531 1884.957031 407.847656 1881.074219 409.921875 C 1865.070312 418.617188 1847.085938 422.96875 1827.113281 422.96875 Z M 1827.113281 422.96875 " fill-opacity="1" fill-rule="nonzero"></path>
  <g clip-path="url(#dd8843adfc)">
    <path fill="#ffffff" d="M 2694.390625 331.796875 L 2694.390625 420.167969 L 2716.539062 420.167969 L 2716.539062 223.847656 L 2694.390625 223.847656 L 2694.390625 311.035156 L 2581.113281 311.035156 L 2581.113281 223.847656 L 2558.96875 223.847656 L 2558.96875 420.167969 L 2581.113281 420.167969 L 2581.113281 331.796875 Z M 2694.390625 331.796875 " fill-opacity="1" fill-rule="nonzero"></path>
  </g>
  <path fill="#ffffff" d="M 2515.683594 389.121094 L 2501.050781 374.6875 C 2492.628906 383.132812 2483.136719 390.121094 2472.574219 395.652344 C 2462.894531 400.59375 2451.222656 403.164062 2437.785156 403.164062 C 2432.578125 403.195312 2427.421875 402.675781 2422.324219 401.609375 C 2417.226562 400.542969 2412.296875 398.953125 2407.535156 396.835938 C 2398.414062 392.539062 2390.375 386.742188 2383.421875 379.441406 C 2376.441406 371.925781 2371.167969 363.359375 2367.601562 353.742188 C 2365.707031 348.632812 2364.277344 343.394531 2363.3125 338.03125 C 2362.351562 332.667969 2361.867188 327.261719 2361.867188 321.8125 C 2361.867188 316.363281 2362.351562 310.957031 2363.3125 305.59375 C 2364.277344 300.230469 2365.707031 294.992188 2367.601562 289.886719 C 2371.214844 280.359375 2376.484375 271.863281 2383.421875 264.398438 C 2390.332031 257.082031 2398.367188 251.347656 2407.535156 247.195312 C 2412.300781 245.109375 2417.234375 243.554688 2422.335938 242.519531 C 2427.433594 241.488281 2432.582031 241.003906 2437.785156 241.066406 C 2451.25 241.066406 2462.691406 243.640625 2472.386719 248.582031 C 2482.269531 253.839844 2491.292969 260.296875 2499.460938 267.953125 L 2514.484375 251.796875 C 2509.757812 247.183594 2504.75 242.898438 2499.460938 238.941406 C 2494.105469 235.050781 2488.375 231.824219 2482.269531 229.261719 C 2475.859375 226.378906 2469.203125 224.269531 2462.300781 222.933594 C 2454.285156 221.257812 2446.179688 220.464844 2437.988281 220.5625 C 2434.679688 220.539062 2431.378906 220.683594 2428.085938 220.996094 C 2424.792969 221.304688 2421.523438 221.78125 2418.277344 222.421875 C 2415.03125 223.066406 2411.828125 223.867188 2408.664062 224.832031 C 2405.5 225.796875 2402.394531 226.921875 2399.34375 228.199219 C 2396.292969 229.480469 2393.3125 230.910156 2390.40625 232.488281 C 2387.5 234.070312 2384.683594 235.792969 2381.949219 237.65625 C 2379.21875 239.523438 2376.585938 241.519531 2374.058594 243.652344 C 2371.527344 245.78125 2369.109375 248.035156 2366.808594 250.410156 C 2362.40625 255.128906 2358.476562 260.214844 2355.023438 265.664062 C 2351.566406 271.113281 2348.640625 276.835938 2346.25 282.832031 C 2345.011719 285.980469 2343.921875 289.179688 2342.984375 292.433594 C 2342.046875 295.683594 2341.261719 298.972656 2340.632812 302.296875 C 2340.003906 305.625 2339.527344 308.972656 2339.210938 312.339844 C 2338.894531 315.710938 2338.738281 319.085938 2338.738281 322.472656 C 2338.738281 325.855469 2338.894531 329.234375 2339.210938 332.605469 C 2339.527344 335.972656 2340.003906 339.320312 2340.632812 342.644531 C 2341.261719 345.972656 2342.046875 349.261719 2342.984375 352.511719 C 2343.921875 355.761719 2345.011719 358.964844 2346.25 362.113281 C 2348.59375 368.101562 2351.496094 373.804688 2354.957031 379.226562 C 2358.414062 384.648438 2362.367188 389.683594 2366.808594 394.332031 C 2371.214844 398.894531 2376.03125 402.976562 2381.257812 406.570312 C 2386.484375 410.164062 2392.015625 413.203125 2397.855469 415.683594 C 2404.058594 418.375 2410.476562 420.382812 2417.105469 421.714844 C 2423.734375 423.046875 2430.433594 423.671875 2437.195312 423.585938 C 2445.402344 423.703125 2453.507812 422.847656 2461.507812 421.015625 C 2468.621094 419.488281 2475.472656 417.183594 2482.066406 414.109375 C 2488.414062 411.160156 2494.347656 407.535156 2499.863281 403.230469 C 2505.511719 398.972656 2510.785156 394.292969 2515.683594 389.1875 Z M 2515.683594 389.121094 " fill-opacity="1" fill-rule="nonzero"></path>
  <path fill="#ffffff" d="M 2042.792969 244.421875 L 2108.628906 244.421875 L 2108.628906 223.847656 L 1954.621094 223.847656 L 1954.621094 244.421875 L 2020.644531 244.421875 L 2020.644531 420.167969 L 2042.792969 420.167969 Z M 2042.792969 244.421875 " fill-opacity="1" fill-rule="nonzero"></path>
  <path fill="#ffffff" d="M 2177.222656 311.035156 L 2155.089844 311.035156 L 2155.089844 420.167969 L 2298.214844 420.167969 L 2298.214844 400 L 2177.222656 400 L 2177.222656 331.203125 L 2284.171875 331.203125 L 2284.171875 311.035156 Z M 2177.222656 311.035156 " fill-opacity="1" fill-rule="evenodd"></path>
  <path fill="#00a5bf" d="M 2177.921875 244.015625 L 2297.515625 244.015625 L 2297.515625 223.847656 L 2155.773438 223.847656 L 2155.773438 244.015625 Z M 2177.921875 244.015625 " fill-opacity="1" fill-rule="evenodd"></path>
</svg>
